<?xml version="1.0" encoding="UTF-8"?>
<!DOCTYPE svg PUBLIC "-//W3C//DTD SVG 1.1//EN" "http://www.w3.org/Graphics/SVG/1.1/DTD/svg11.dtd">
<svg xmlns="http://www.w3.org/2000/svg" version="1.1" width="2048px" height="2048px" style="shape-rendering:geometricPrecision; text-rendering:geometricPrecision; image-rendering:optimizeQuality; fill-rule:evenodd; clip-rule:evenodd" xmlns:xlink="http://www.w3.org/1999/xlink">
<g><path style="opacity:0.989" fill="#dc0988" d="M 1056.5,-0.5 C 1060.17,-0.5 1063.83,-0.5 1067.5,-0.5C 1100.06,1.42813 1129.39,12.4281 1155.5,32.5C 1307.03,184.692 1458.69,336.358 1610.5,487.5C 1606.13,559.217 1587.8,626.884 1555.5,690.5C 1550.13,699.981 1544.96,709.648 1540,719.5C 1522.18,747.311 1502.85,773.978 1482,799.5C 1461.7,822.134 1441.03,844.467 1420,866.5C 1415.06,874.52 1414.4,882.853 1418,891.5C 1419.83,894.667 1422.33,897.167 1425.5,899C 1438.75,905.242 1452.75,907.242 1467.5,905C 1504.2,898.3 1537.54,887.3 1567.5,872C 1648.14,835.64 1721.31,786.14 1787,723.5C 1791.66,717.839 1796.66,712.506 1802,707.5C 1805.7,702.479 1809.36,697.479 1813,692.5C 1815.36,692.6 1817.52,693.767 1819.5,696C 1836.88,713.918 1854.88,732.751 1873.5,752.5C 1904.22,785.604 1924.05,824.271 1933,868.5C 1933.67,887.167 1933.67,905.833 1933,924.5C 1927.84,948.767 1919.18,971.767 1907,993.5C 1903.01,997.999 1899.84,1003 1897.5,1008.5C 1895.1,1009.01 1894.43,1010.17 1895.5,1012C 1893.93,1013.68 1892.26,1015.18 1890.5,1016.5C 1887.2,1020 1884.37,1024 1882,1028.5C 1764.86,1146.64 1647.69,1264.14 1530.5,1381C 1529.17,1381.67 1527.83,1381.67 1526.5,1381C 1286.7,1140.04 1046.04,899.204 804.5,658.5C 786.614,639.782 768.114,621.448 749,603.5C 748.333,601.5 748.333,599.5 749,597.5C 778.52,538.964 804.187,477.63 826,413.5C 826.667,412.833 827.333,412.167 828,411.5C 844.456,361.624 859.623,311.624 873.5,261.5C 879.927,239.845 885.761,218.845 891,198.5C 896.108,174.915 902.108,151.915 909,129.5C 920.096,92.1695 940.263,60.0028 969.5,33C 979.785,25.3704 990.451,18.537 1001.5,12.5C 1009.56,9.75746 1017.56,6.92412 1025.5,4C 1035.88,1.8699 1046.21,0.369901 1056.5,-0.5 Z"/></g>
<g><path style="opacity:0.004" fill="#dc0988" d="M 1001.5,12.5 C 1000.83,11.1667 1000.83,11.1667 1001.5,12.5 Z"/></g>
<g><path style="opacity:0.004" fill="#dc0988" d="M 873.5,261.5 C 872.833,260.167 872.833,260.167 873.5,261.5 Z"/></g>
<g><path style="opacity:0.004" fill="#dc0988" d="M 804.5,658.5 C 803.833,659.167 803.833,659.167 804.5,658.5 Z"/></g>
<g><path style="opacity:0.988" fill="#dc0988" d="M 1358.5,1693.5 C 1347.4,1704.6 1335.4,1714.6 1322.5,1723.5C 1288.24,1744.43 1251.9,1748.59 1213.5,1736C 1207.74,1733.23 1202.24,1730.06 1197,1726.5C 1196.67,1726.83 1196.33,1727.17 1196,1727.5C 1190.57,1723.2 1184.73,1719.53 1178.5,1716.5C 1172.2,1711.34 1165.86,1706.17 1159.5,1701C 1088.43,1628.93 1016.93,1557.1 945,1485.5C 935.355,1500.18 926.022,1515.18 917,1530.5C 890.111,1578.11 863.944,1626.28 838.5,1675C 838.833,1675.33 839.167,1675.67 839.5,1676C 831.512,1689.33 823.512,1702.66 815.5,1716C 807.257,1733.79 797.59,1751.12 786.5,1768C 786.833,1768.33 787.167,1768.67 787.5,1769C 784.876,1769.58 784.209,1770.91 785.5,1773C 783.558,1775.03 781.725,1777.2 780,1779.5C 774.683,1789.77 768.849,1800.1 762.5,1810.5C 753.958,1823.43 746.292,1835.43 739.5,1846.5C 716.3,1882.8 689.634,1917.13 659.5,1949.5C 626.846,1982.27 589.846,2007.94 548.5,2026.5C 535.875,2031.47 523.209,2035.81 510.5,2039.5C 502.372,2040.8 494.372,2042.63 486.5,2045C 478.993,2045.62 471.659,2046.45 464.5,2047.5C 448.5,2047.5 432.5,2047.5 416.5,2047.5C 369.62,2042.1 326.62,2027.26 287.5,2003C 230.753,1966.58 184.92,1919.08 150,1860.5C 131.774,1825.33 119.774,1788 114,1748.5C 113.333,1730.17 113.333,1711.83 114,1693.5C 117.267,1676.48 120.767,1659.48 124.5,1642.5C 132.484,1619.58 142.317,1597.24 154,1575.5C 161.432,1564.87 168.432,1554.53 175,1544.5C 191.506,1522.82 210.006,1502.82 230.5,1484.5C 274.394,1448.93 320.727,1416.93 369.5,1388.5C 441.88,1346.64 515.213,1306.31 589.5,1267.5C 604.631,1257.49 620.131,1248.83 636,1241.5C 649.299,1232.8 662.465,1224.3 675.5,1216C 601.854,1142.35 528.354,1068.85 455,995.5C 444.407,981.25 435.074,966.25 427,950.5C 414.312,915.699 416.145,881.699 432.5,848.5C 438.318,839.543 444.151,830.543 450,821.5C 482.22,788.28 514.72,755.447 547.5,723C 555.06,716.737 562.726,710.737 570.5,705C 577.733,700.874 585.067,697.041 592.5,693.5C 635.485,677.828 675.819,682.994 713.5,709C 716.468,711.392 719.301,713.892 722,716.5C 722.333,716.167 722.667,715.833 723,715.5C 728.52,721.685 734.687,727.185 741.5,732C 953.477,946.312 1167.31,1160.48 1383,1374.5C 1403.78,1395.61 1424.11,1416.94 1444,1438.5C 1484.15,1489.79 1486.98,1542.29 1452.5,1596C 1445.32,1603.85 1438.49,1612.02 1432,1620.5C 1407.66,1645.01 1383.16,1669.34 1358.5,1693.5 Z M 541.5,1770.5 C 532.318,1790.86 517.984,1806.69 498.5,1818C 463.84,1835.95 429.173,1835.95 394.5,1818C 354.433,1791.84 337.1,1754.5 342.5,1706C 348.069,1682.59 360.069,1662.25 378.5,1645C 411.5,1620.44 448.167,1615.11 488.5,1629C 529.088,1648.49 550.088,1680.82 551.5,1726C 551.611,1740.39 548.277,1755.22 541.5,1770.5 Z"/></g>
<g><path style="opacity:0.004" fill="#dc0988" d="M 1555.5,690.5 C 1556.53,690.897 1556.69,691.563 1556,692.5C 1555.54,691.906 1555.37,691.239 1555.5,690.5 Z"/></g>
<g><path style="opacity:0.004" fill="#dc0988" d="M 592.5,693.5 C 591.833,692.167 591.833,692.167 592.5,693.5 Z"/></g>
<g><path style="opacity:0.004" fill="#dc0988" d="M 1873.5,751.5 C 1874.83,752.167 1874.83,752.167 1873.5,751.5 Z"/></g>
<g><path style="opacity:0.004" fill="#dc0988" d="M 1464.5,903.5 C 1465.83,904.167 1465.83,904.167 1464.5,903.5 Z"/></g>
<g><path style="opacity:0.008" fill="#dc0988" d="M 1890.5,1016.5 C 1891.83,1017.17 1891.83,1017.17 1890.5,1016.5 Z"/></g>
<g><path style="opacity:0.004" fill="#dc0988" d="M 561.5,1279.5 C 562.833,1280.17 562.833,1280.17 561.5,1279.5 Z"/></g>
<g><path style="opacity:0.004" fill="#dc0988" d="M 369.5,1388.5 C 368.833,1387.17 368.833,1387.17 369.5,1388.5 Z"/></g>
<g><path style="opacity:0.004" fill="#dc0988" d="M 172.5,1545.5 C 173.833,1546.17 173.833,1546.17 172.5,1545.5 Z"/></g>
<g><path style="opacity:0.004" fill="#dc0988" d="M 124.5,1642.5 C 123.833,1641.17 123.833,1641.17 124.5,1642.5 Z"/></g>
<g><path style="opacity:0.004" fill="#dc0988" d="M 1358.5,1693.5 C 1359.83,1694.17 1359.83,1694.17 1358.5,1693.5 Z"/></g>
<g><path style="opacity:0.004" fill="#dc0988" d="M 1178.5,1716.5 C 1177.83,1717.17 1177.83,1717.17 1178.5,1716.5 Z"/></g>
<g><path style="opacity:0.004" fill="#dc0988" d="M 1322.5,1723.5 C 1323.83,1724.17 1323.83,1724.17 1322.5,1723.5 Z"/></g>
<g><path style="opacity:0.004" fill="#dc0988" d="M 762.5,1810.5 C 763.833,1811.17 763.833,1811.17 762.5,1810.5 Z"/></g>
<g><path style="opacity:0.004" fill="#dc0988" d="M 739.5,1846.5 C 740.833,1847.17 740.833,1847.17 739.5,1846.5 Z"/></g>
<g><path style="opacity:0.004" fill="#dc0988" d="M 352.5,2034.5 C 353.833,2035.17 353.833,2035.17 352.5,2034.5 Z"/></g>
<g><path style="opacity:0.004" fill="#dc0988" d="M 510.5,2039.5 C 511.833,2040.17 511.833,2040.17 510.5,2039.5 Z"/></g>
</svg>
